<svg xmlns="http://www.w3.org/2000/svg" viewBox="0 0 64 64" width="100%" height="100%">
  <defs>
    <linearGradient id="favBg" x1="0%" y1="0%" x2="100%" y2="100%">
      <stop offset="0%" stop-color="#3B82F6" />
      <stop offset="100%" stop-color="#1D4ED8" />
    </linearGradient>
  </defs>

  <!-- Squircle Base -->
  <rect width="64" height="64" rx="15" fill="url(#favBg)" />

  <!-- Prominent White N Shelter Mark for crisp low-res visibility -->
  <g transform="translate(-1, 0) scale(0.13)" fill="#FFFFFF">
    <!-- Left bar -->
    <rect x="106" y="180" width="64" height="240" rx="32" />

    <!-- Roof & Arch -->
    <path d="M 134 200 
             C 134 130, 206 90, 256 90 
             C 306 90, 378 130, 378 200 
             L 378 390 
             C 378 408, 362 420, 346 420 
             C 330 420, 314 408, 314 390 
             L 314 210 
             C 314 165, 276 142, 256 142 
             C 236 142, 198 165, 198 210 
             L 198 390 
             C 198 408, 182 420, 166 420 
             C 150 420, 134 408, 134 390 
             Z" />

    <!-- Warm Golden Smile -->
    <path d="M 184 285 
             C 214 345, 298 345, 328 285 
             C 334 270, 316 256, 304 272 
             C 284 298, 228 298, 208 272 
             C 196 256, 178 270, 184 285 Z" 
          fill="#FDE047" />
  </g>
</svg>
